<?xml version="1.0" encoding="UTF-8"?>
<svg id="Layer_1" data-name="Layer 1" xmlns="http://www.w3.org/2000/svg" viewBox="0 0 2335 2335">
  <defs>
    <style>
      .cls-1 {
        fill: #fff;
      }
    </style>
  </defs>
  <path d="m2135.6,514.73c-41.76-61.82-89.72-119.95-142.55-172.77-52.83-52.83-110.96-100.79-172.77-142.55-62.41-42.17-129.14-78.38-198.32-107.65C1478,30.87,1325.1,0,1167.5,0s-310.5,30.87-454.45,91.75c-69.18,29.26-135.91,65.48-198.32,107.65-61.82,41.76-119.95,89.72-172.77,142.55-52.83,52.83-100.79,110.96-142.55,172.77-42.17,62.41-78.38,129.14-107.65,198.32C30.87,857,0,1009.9,0,1167.5s30.87,310.5,91.75,454.45c29.26,69.18,65.48,135.91,107.65,198.32,41.76,61.82,89.72,119.95,142.55,172.77,52.83,52.83,110.96,100.79,172.77,142.55,62.41,42.17,129.14,78.38,198.32,107.65,143.95,60.88,296.85,91.75,454.45,91.75s310.5-30.87,454.45-91.75c69.18-29.26,135.91-65.48,198.32-107.65,61.82-41.76,119.95-89.72,172.77-142.55,52.83-52.83,100.79-110.96,142.55-172.77,42.17-62.41,78.38-129.14,107.65-198.32,60.88-143.95,91.75-296.85,91.75-454.45s-30.87-310.5-91.75-454.45c-29.26-69.18-65.48-135.91-107.65-198.32Zm-968.1,1785.27c-624.46,0-1132.5-508.04-1132.5-1132.5S543.04,35,1167.5,35s1132.5,508.04,1132.5,1132.5-508.04,1132.5-1132.5,1132.5Z"/>
  <path d="m2252.96,907.88c-14.19-59.5-33.33-117.83-57.38-174.7-3.54-8.37-7.18-16.68-10.91-24.94-55.51-122.89-132.19-233.7-228.2-329.71-102.46-102.46-221.79-182.91-354.65-239.11-137.58-58.19-283.7-87.69-434.32-87.69s-296.74,29.5-434.32,87.69c-132.87,56.2-252.19,136.65-354.65,239.11-96.01,96.01-172.69,206.82-228.2,329.71-3.73,8.26-7.37,16.57-10.91,24.94-24.05,56.87-43.19,115.2-57.38,174.7-20.14,84.45-30.31,171.26-30.31,259.62s10.25,175.92,30.57,260.71c14.17,59.12,33.22,117.09,57.13,173.61,3.54,8.37,7.18,16.68,10.91,24.94,55.51,122.89,132.19,233.7,228.2,329.71,102.46,102.46,221.78,182.91,354.65,239.11,137.58,58.19,283.7,87.69,434.32,87.69s296.74-29.5,434.32-87.69c132.87-56.2,252.19-136.65,354.65-239.11,96.01-96.01,172.69-206.82,228.2-329.71,3.73-8.26,7.37-16.57,10.91-24.94,23.91-56.52,42.96-114.48,57.12-173.61,20.32-84.79,30.57-171.97,30.57-260.71s-10.17-175.17-30.31-259.62ZM1167.5,106.15c420.81,0,785.19,246.19,956.72,602.09H210.78C382.31,352.34,746.69,106.15,1167.5,106.15Zm0,2122.7c-420.81,0-785.19-246.19-956.72-602.09h1913.45c-171.53,355.9-535.91,602.09-956.72,602.09Z"/>
  <g>
    <path class="cls-1" d="m703.08,873.48l-35.81,227.03h-47.63l-34.8-135.81-38.85,135.81h-47.64l-35.81-227.03h45.27l19.93,122.3,31.76-122.3h47.64l31.76,122.3,18.92-122.3h45.27Z"/>
    <path class="cls-1" d="m921.77,986.99c0,36.04-8.56,64.64-25.68,85.81-17.12,21.17-39.98,31.76-68.58,31.76-31.98,0-56.42-12.16-73.31-36.49-14.64-21.17-21.96-48.19-21.96-81.08,0-35.81,8.56-64.19,25.68-85.13,17.11-20.95,40.31-31.42,69.59-31.42,27.48,0,50.05,10.76,67.74,32.26,17.68,21.51,26.52,49.61,26.52,84.29Zm-44.26-.68c.22-22.52-3.88-39.98-12.33-52.37-8.45-12.38-21-18.58-37.67-18.58-15.54,0-27.76,5.97-36.66,17.91-8.9,11.94-13.34,29.85-13.34,53.72s4.33,40.77,13.01,53.38c8.67,12.62,21,18.92,36.99,18.92s27.48-6.59,36.49-19.76c9.01-13.18,13.51-30.91,13.51-53.21Z"/>
    <path class="cls-1" d="m1149.87,1100.51h-47.63l-30.74-84.8h-59.46v84.8h-44.59v-227.03h102.37c16.44,0,30.24,3.16,41.38,9.46,11.15,6.31,19.88,14.92,26.18,25.84,6.3,10.93,9.46,22.69,9.46,35.3,0,26.13-10.81,46.28-32.43,60.47l35.47,95.95Zm-47.63-156.42c0-7.21-2.65-13.23-7.94-18.07-5.29-4.84-12.11-7.26-20.44-7.26h-61.82v51.69h61.82c8.33,0,15.15-2.42,20.44-7.26,5.29-4.84,7.94-11.2,7.94-19.09Z"/>
    <path class="cls-1" d="m1383.68,1100.51h-50l-52.37-112.84-39.53,48.65v64.19h-44.59v-227.03h44.59v89.53l71.28-89.53h56.42l-57.09,74.66,71.28,152.36Z"/>
    <path class="cls-1" d="m1613.74,1100.51h-45.27v-227.03h45.27v227.03Z"/>
    <path class="cls-1" d="m1852.53,1100.51h-38.85l-98.99-145.27v145.27h-44.59v-227.03h44.59l93.58,138.85v-138.85h44.26v227.03Z"/>
    <path class="cls-1" d="m474.08,1304.09c0,14.19-3.49,27.03-10.47,38.51-6.98,11.49-16.89,20.16-29.73,26.01-9.46,4.73-22.19,7.09-38.18,7.09h-59.46v84.8h-44.59v-227.03h106.42c16.67,0,30.41,3.16,41.22,9.46,10.81,6.31,19.31,14.92,25.51,25.84,6.19,10.93,9.29,22.69,9.29,35.3Zm-44.26,0c0-7.21-2.7-13.23-8.11-18.07-5.41-4.84-12.28-7.26-20.61-7.26h-64.87v51.69h64.87c8.78,0,15.76-2.42,20.95-7.26,5.18-4.84,7.77-11.2,7.77-19.09Z"/>
    <path class="cls-1" d="m700.49,1460.51h-47.64l-30.74-84.8h-59.46v84.8h-44.59v-227.03h102.37c16.44,0,30.24,3.16,41.38,9.46,11.15,6.31,19.87,14.92,26.18,25.84,6.3,10.93,9.46,22.69,9.46,35.3,0,26.13-10.81,46.28-32.43,60.47l35.47,95.95Zm-47.64-156.42c0-7.21-2.65-13.23-7.94-18.07-5.29-4.84-12.11-7.26-20.44-7.26h-61.82v51.69h61.82c8.33,0,15.14-2.42,20.44-7.26,5.29-4.84,7.94-11.2,7.94-19.09Z"/>
    <path class="cls-1" d="m927.88,1346.99c0,36.04-8.56,64.64-25.68,85.81-17.12,21.17-39.98,31.76-68.58,31.76-31.98,0-56.42-12.16-73.31-36.49-14.64-21.17-21.96-48.19-21.96-81.08,0-35.81,8.56-64.19,25.68-85.13,17.11-20.95,40.31-31.42,69.59-31.42,27.48,0,50.05,10.76,67.74,32.26,17.68,21.51,26.52,49.61,26.52,84.29Zm-44.26-.68c.22-22.52-3.88-39.98-12.33-52.36-8.45-12.38-21-18.58-37.67-18.58-15.54,0-27.76,5.97-36.66,17.91-8.9,11.94-13.34,29.85-13.34,53.72s4.33,40.77,13.01,53.38c8.67,12.62,21,18.92,36.99,18.92s27.48-6.59,36.49-19.76c9.01-13.18,13.51-30.91,13.51-53.21Z"/>
    <path class="cls-1" d="m1158.28,1349.02c0,35.81-8.22,64.02-24.66,84.63-16.44,20.61-39.31,30.91-68.58,30.91-31.31,0-55.52-11.26-72.64-33.78-17.12-22.52-25.68-50.45-25.68-83.78s9.23-63.06,27.7-84.46c18.46-21.39,42.57-32.09,72.3-32.09,18.02,0,34.46,4.34,49.32,13.01,14.87,8.67,26.24,20.67,34.12,35.98l-39.87,21.62c-9.91-17.11-25-25.68-45.27-25.68-16.22,0-29.11,6.48-38.68,19.43-9.58,12.95-14.36,30.35-14.36,52.2s4.78,39.92,14.36,52.87c9.57,12.95,22.69,19.54,39.36,19.76,20.49-.45,33.56-9.34,39.19-26.69h-39.86v-43.92h93.24Z"/>
    <path class="cls-1" d="m1383.99,1460.51h-47.63l-30.74-84.8h-59.46v84.8h-44.59v-227.03h102.37c16.44,0,30.24,3.16,41.38,9.46,11.15,6.31,19.88,14.92,26.18,25.84,6.3,10.93,9.46,22.69,9.46,35.3,0,26.13-10.81,46.28-32.43,60.47l35.47,95.95Zm-47.63-156.42c0-7.21-2.65-13.23-7.94-18.07-5.29-4.84-12.11-7.26-20.44-7.26h-61.82v51.69h61.82c8.33,0,15.15-2.42,20.44-7.26,5.29-4.84,7.94-11.2,7.94-19.09Z"/>
    <path class="cls-1" d="m1599.74,1460.51h-168.24v-227.03h165.2v45.27h-120.61v37.16h68.24v45.27h-68.24v54.05h123.65v45.27Z"/>
    <path class="cls-1" d="m1824.7,1393.95c0,23.43-8.73,41.05-26.18,52.87-17.46,11.82-39.25,17.74-65.37,17.74-34.24-.23-65.2-12.61-92.91-37.16l32.77-32.77c19.59,15.09,40.42,23.31,62.5,24.66,13.51,0,24.32-2.2,32.43-6.59,8.11-4.39,12.16-10.42,12.16-18.07.22-7.65-3.49-13.96-11.15-18.92-7.66-4.95-20.61-8.56-38.85-10.81-27.03-3.38-46.79-11.03-59.29-22.97-12.5-11.94-18.64-26.01-18.41-42.23,0-19.82,6.81-36.26,20.44-49.32,13.62-13.06,33.28-19.71,58.95-19.93,31.3.68,58.11,10.47,80.41,29.39l-32.09,32.09c-12.84-9.91-28.38-15.31-46.62-16.22-13.51,0-23.09,1.97-28.72,5.91-5.63,3.94-8.45,8.95-8.45,15.03.22,6.31,3.21,11.04,8.95,14.19,5.74,3.16,15.37,5.41,28.89,6.76,28.6,2.7,50.84,10.64,66.72,23.82,15.88,13.18,23.82,30.69,23.82,52.53Z"/>
    <path class="cls-1" d="m2043.35,1393.95c0,23.43-8.73,41.05-26.18,52.87-17.46,11.82-39.25,17.74-65.37,17.74-34.24-.23-65.2-12.61-92.91-37.16l32.77-32.77c19.59,15.09,40.42,23.31,62.5,24.66,13.51,0,24.32-2.2,32.43-6.59,8.11-4.39,12.16-10.42,12.16-18.07.22-7.65-3.49-13.96-11.15-18.92-7.66-4.95-20.61-8.56-38.85-10.81-27.03-3.38-46.79-11.03-59.29-22.97-12.5-11.94-18.64-26.01-18.41-42.23,0-19.82,6.81-36.26,20.44-49.32,13.62-13.06,33.28-19.71,58.95-19.93,31.3.68,58.11,10.47,80.41,29.39l-32.09,32.09c-12.84-9.91-28.38-15.31-46.62-16.22-13.51,0-23.09,1.97-28.72,5.91-5.63,3.94-8.45,8.95-8.45,15.03.22,6.31,3.21,11.04,8.95,14.19,5.74,3.16,15.37,5.41,28.89,6.76,28.6,2.7,50.84,10.64,66.72,23.82,15.88,13.18,23.82,30.69,23.82,52.53Z"/>
  </g>
</svg>