<?xml version="1.0" encoding="UTF-8"?>
<svg id="Layer_1" data-name="Layer 1" xmlns="http://www.w3.org/2000/svg" viewBox="0 0 3000 3000">
  <defs>
    <style>
      .cls-1 {
        fill: #fff;
      }

      .cls-2 {
        stroke: #000;
        stroke-miterlimit: 10;
        stroke-width: 29.01px;
      }
    </style>
  </defs>
  <g>
    <polygon class="cls-1" points="81.22 2708.13 1499.66 251.34 2918.09 2708.13 81.22 2708.13"/>
    <path d="m1499.66,318.41l1360.34,2356.19H139.31L1499.66,318.41m0-134.15l-58.09,100.61L81.22,2641.06l-58.09,100.61h2953.04l-58.09-100.61L1557.74,284.87l-58.09-100.61h0Z"/>
  </g>
  <g>
    <path d="m886.82,2240.22l-55.3-202.47-55.3,202.47h-57.37l-75.17-281.2h61.49l47.99,187.47,49.68-187.47h59.24l47.8,187.47,47.8-187.47h61.49l-75.17,281.2h-57.18Z"/>
    <path d="m1171.02,2240.22c-40,0-73.43-13.43-100.3-40.31-26.87-27.12-40.31-60.55-40.31-100.3s13.43-73.42,40.31-100.3c26.87-26.87,60.3-40.31,100.3-40.31s73.42,13.44,100.3,40.31c26.87,26.87,40.31,60.3,40.31,100.3s-13.44,73.43-40.31,100.3c-26.87,26.87-60.3,40.31-100.3,40.31Zm-.19-227.4c-24.37,0-44.31,8.31-59.8,24.93-15.25,16.62-22.87,37.25-22.87,61.87s7.62,45.24,22.87,61.86c15.5,16.62,35.55,24.93,60.18,24.93s44.3-8.31,59.8-24.93c15.25-16.62,22.87-37.24,22.87-61.86s-7.62-45.24-22.87-61.87c-15.5-16.62-35.56-24.93-60.18-24.93Z"/>
    <path d="m1446.79,2137.68h-44.81v102.55h-60.36v-279.52h122.79c33.87,0,59.99,9.06,78.36,27.18,15.25,15.25,22.87,35.81,22.87,61.68v.75c0,39.25-18.87,66.93-56.62,83.05l69.18,106.86h-75.17l-56.24-102.55Zm46.21-112.76c-7.81-6.31-18.97-9.47-33.46-9.47h-57.74v74.99h58.68c14.12,0,25.03-3.34,32.71-10.03,7.69-6.68,11.53-15.65,11.53-26.9v-.75c0-12.25-3.91-21.53-11.72-27.84Z"/>
    <path d="m1665.75,2120.8v119.42h-57.55v-281.2h57.55v110.42l91.67-110.42h65.05l-110.23,131.42,133.1,149.79h-74.99l-104.61-119.42Z"/>
    <path d="m2006.57,1958.83h58.49v281.39h-58.49v-281.39Z"/>
    <path d="m2161.98,2068.13v172.1h-57.55v-281.2h19.87l173.78,173.97v-173.97h57.55v281.2h-21.75l-171.91-172.1Z"/>
    <path d="m530.53,2485.5v115.48h-57.55v-281.2h122.42c65.74,0,98.61,27.12,98.61,81.36s-32.81,84.36-98.42,84.36h-65.05Zm0-111.73v57.93h77.24c11,0,19.4-2.56,25.21-7.69,5.81-5.12,8.72-12.56,8.72-22.31,0-9-2.84-15.9-8.53-20.72-5.69-4.81-13.97-7.22-24.84-7.22h-77.8Z"/>
    <path d="m829.17,2498.43h-44.81v102.55h-60.36v-279.52h122.79c33.87,0,59.99,9.06,78.36,27.18,15.25,15.25,22.87,35.81,22.87,61.68v.75c0,39.25-18.87,66.93-56.62,83.05l69.18,106.86h-75.17l-56.24-102.55Zm46.21-112.76c-7.81-6.31-18.97-9.47-33.46-9.47h-57.74v74.99h58.68c14.12,0,25.03-3.34,32.71-10.03,7.69-6.68,11.53-15.65,11.53-26.9v-.75c0-12.25-3.91-21.53-11.72-27.84Z"/>
    <path d="m1119.94,2600.98c-40,0-73.43-13.43-100.3-40.31-26.87-27.12-40.31-60.55-40.31-100.3s13.43-73.42,40.31-100.3c26.87-26.87,60.3-40.31,100.3-40.31s73.42,13.44,100.3,40.31c26.87,26.87,40.31,60.3,40.31,100.3s-13.44,73.43-40.31,100.3c-26.87,26.87-60.3,40.31-100.3,40.31Zm-.19-227.4c-24.37,0-44.31,8.31-59.8,24.93-15.25,16.62-22.87,37.25-22.87,61.87s7.62,45.24,22.87,61.86c15.5,16.62,35.55,24.93,60.18,24.93s44.3-8.31,59.8-24.93c15.25-16.62,22.87-37.24,22.87-61.86s-7.62-45.24-22.87-61.87c-15.5-16.62-35.56-24.93-60.18-24.93Z"/>
    <path d="m1330.65,2560.67c-13.25-13.25-23.25-28.28-30-45.09-6.75-16.81-10.12-35.15-10.12-55.02,0-39.62,13.43-73.05,40.31-100.3,27-27,60.37-40.49,100.11-40.49,19.12,0,37.12,3.03,53.99,9.09,16.87,6.06,33.43,15.65,49.68,28.78l-38.06,41.99c-11-7.87-21.69-13.56-32.06-17.06-10.38-3.5-21.25-5.25-32.62-5.25-25.5,0-45.87,7.69-61.11,23.06-15.37,15.62-23,35.31-22.87,59.05,0,25.62,7.75,46.06,23.25,61.3,15,15,35.06,22.5,60.18,22.5,9.5,0,17.93-.91,25.31-2.72,7.37-1.81,14.12-4.78,20.25-8.9v-46.3l-47.99.38v-53.99h105.36v131.6c-15.12,12.75-31.18,22.22-48.18,28.4-17,6.19-35.37,9.28-55.12,9.28-39.62,0-73.05-13.43-100.3-40.31Z"/>
    <path d="m1669.78,2498.43h-44.81v102.55h-60.37v-279.52h122.79c33.87,0,59.99,9.06,78.36,27.18,15.25,15.25,22.87,35.81,22.87,61.68v.75c0,39.25-18.87,66.93-56.62,83.05l69.18,106.86h-75.17l-56.24-102.55Zm46.21-112.76c-7.81-6.31-18.97-9.47-33.46-9.47h-57.74v74.99h58.68c14.12,0,25.03-3.34,32.71-10.03,7.69-6.68,11.53-15.65,11.53-26.9v-.75c0-12.25-3.91-21.53-11.72-27.84Z"/>
    <path d="m1888.75,2431.7l121.85.38v53.43l-121.85-.38v62.05h148.66v53.8h-206.22v-281.02l206.59-.19v53.8h-149.04v58.12Z"/>
    <path d="m2178.95,2600.98c-26.25,0-48.06-3.75-65.43-11.25-8-3.5-15.59-7.62-22.78-12.37-7.19-4.75-14.84-10.81-22.97-18.18l38.62-38.43c8.37,8.5,17.65,14.87,27.84,19.12,10.18,4.25,22.03,6.69,35.53,7.31l5.44.19c10.37,0,18.93-1.41,25.68-4.22,6.75-2.81,11.56-6.66,14.43-11.53,3-5.25,4.5-10.37,4.5-15.37,0-5.25-1.5-10.37-4.5-15.37-6-10.37-21.31-16.75-45.93-19.12-22.37-2.5-42.87-9.31-61.49-20.43-18.87-11.25-28.31-30.87-28.31-58.87,0-24.75,10.62-44.81,31.87-60.18,20.87-15,42.8-22.5,65.8-22.5,25.37,0,45.55,3.12,60.55,9.37,6.5,2.75,12.96,6.37,19.4,10.87,6.44,4.5,13.65,10.44,21.65,17.81l-38.43,38.24c-7.87-8-15.97-13.75-24.28-17.25-8.31-3.5-17.59-5.25-27.84-5.25-22,0-36.06,5.19-42.18,15.56-3,5-4.5,9.75-4.5,14.25,0,4.25,1.5,8.19,4.5,11.81,3,3.75,8.06,7.03,15.19,9.84,7.12,2.81,16.12,4.97,27,6.47,25,3.37,46.49,11.19,64.49,23.43,19.5,13.12,29.25,34.25,29.25,63.36,0,22.5-10.38,41.87-31.12,58.12-20.62,16.37-44.62,24.56-71.99,24.56Z"/>
    <path d="m2423.22,2600.98c-26.25,0-48.06-3.75-65.43-11.25-8-3.5-15.59-7.62-22.78-12.37-7.19-4.75-14.84-10.81-22.97-18.18l38.62-38.43c8.37,8.5,17.65,14.87,27.84,19.12,10.18,4.25,22.03,6.69,35.53,7.31l5.44.19c10.37,0,18.93-1.41,25.68-4.22,6.75-2.81,11.56-6.66,14.43-11.53,3-5.25,4.5-10.37,4.5-15.37,0-5.25-1.5-10.37-4.5-15.37-6-10.37-21.31-16.75-45.93-19.12-22.37-2.5-42.87-9.31-61.49-20.43-18.87-11.25-28.31-30.87-28.31-58.87,0-24.75,10.62-44.81,31.87-60.18,20.87-15,42.8-22.5,65.8-22.5,25.37,0,45.55,3.12,60.55,9.37,6.5,2.75,12.96,6.37,19.4,10.87,6.44,4.5,13.65,10.44,21.65,17.81l-38.43,38.24c-7.87-8-15.97-13.75-24.28-17.25-8.31-3.5-17.59-5.25-27.84-5.25-22,0-36.06,5.19-42.18,15.56-3,5-4.5,9.75-4.5,14.25,0,4.25,1.5,8.19,4.5,11.81,3,3.75,8.06,7.03,15.19,9.84,7.12,2.81,16.12,4.97,27,6.47,25,3.37,46.49,11.19,64.49,23.43,19.5,13.12,29.25,34.25,29.25,63.36,0,22.5-10.38,41.87-31.12,58.12-20.62,16.37-44.62,24.56-71.99,24.56Z"/>
  </g>
  <path class="cls-2" d="m1822.57,1631.65h-645.82l71.7-252.39,25.55-90.08,29.41-103.45,25.6-90.12,29.36-103.41,25.6-90.12,83.18-292.95c3.86-13.45,17.41-20.41,31.21-20.78,14.73-.46,29.72,6.46,33.79,20.78l83.23,292.95,25.6,90.12,29.36,103.41,25.6,90.12,29.36,103.45,25.6,90.08,71.7,252.39Z"/>
  <path d="m1927.52,1687.74v47.9c0,30.85-23.12,56.09-51.38,56.09h-752.96c-28.26,0-51.38-25.24-51.38-56.09v-47.9c0-30.85,23.12-56.09,51.38-56.09h752.96c28.26,0,51.38,25.24,51.38,56.09Z"/>
  <polygon class="cls-1" points="1750.87 1379.26 1248.44 1379.26 1273.99 1289.19 1725.27 1289.19 1750.87 1379.26"/>
  <polygon class="cls-1" points="1695.92 1185.74 1303.39 1185.74 1328.99 1095.62 1670.32 1095.62 1695.92 1185.74"/>
  <polygon class="cls-1" points="1640.96 992.22 1358.35 992.22 1383.95 902.1 1615.36 902.1 1640.96 992.22"/>
</svg>