<?xml version="1.0" encoding="UTF-8"?>
<svg xmlns="http://www.w3.org/2000/svg" xmlns:xlink="http://www.w3.org/1999/xlink" viewBox="0 0 5856.6 5486.4">
  <defs>
    <style>
      .cls-1 {
        fill: url(#linear-gradient);
      }

      .cls-2 {
        fill: #dbd077;
      }

      .cls-3 {
        fill: #231f20;
      }

      .cls-4 {
        fill: #7b7c7f;
      }
    </style>
    <linearGradient id="linear-gradient" x1="672.06" y1="2740.45" x2="5042.35" y2="2740.45" gradientUnits="userSpaceOnUse">
      <stop offset="0" stop-color="#ffcb05"/>
      <stop offset=".35" stop-color="#ffcc04"/>
      <stop offset=".47" stop-color="#ffd302"/>
      <stop offset=".55" stop-color="#ffde00"/>
    </linearGradient>
  </defs>
  <g id="Livello_5" data-name="Livello 5">
    <path class="cls-2" d="m4984.7,4226.34L3111.34,933.56s-119.09-209.25-277.83-209.27c-79.38-.02-168.65,52.29-257.99,209.27l-1873.35,3292.78s-63.44,111.49-64.03,225.96v3.29c.64,119.73,71.29,241.62,356.29,241.62h3698.02s560.11,0,292.24-470.88Z"/>
    <path class="cls-4" d="m4955.19,4235.19L3093.12,962.25s-118.37-207.99-276.16-208.01c-78.9-.02-167.63,51.97-256.43,208.01l-1862.07,3272.95s-63.06,110.81-63.65,224.6v3.27c.64,119,70.86,240.16,354.14,240.16h3675.75s556.74,0,290.48-468.04Z"/>
    <path class="cls-1" d="m4970.6,4239.29L3117.94,982.89s-117.78-206.94-274.76-206.96c-78.5-.02-166.78,51.71-255.13,206.96l-1852.65,3256.4s-62.74,110.25-63.32,223.47v3.25c.64,118.4,70.51,238.95,352.35,238.95h3657.17s553.93,0,289.01-465.67Z"/>
    <path class="cls-2" d="m4799.9,4478.49H929.63c-20.02,0-38.51-10.68-48.52-28.02-10-17.33-9.99-38.7.02-56.02l1924.95-3330.49c9.99-17.28,28.41-27.93,48.37-27.98h.13c19.91,0,38.32,10.57,48.37,27.77l1945.31,3330.47c10.14,17.32,10.21,38.74.23,56.15-10,17.39-28.53,28.12-48.6,28.12h0Zm-3773.19-112.04h3675.6l-1847.47-3162.95-1828.13,3162.95h0Z"/>
    <path class="cls-4" d="m4775.7,4502.69H905.43c-20.02,0-38.51-10.68-48.52-28.02-10-17.33-9.99-38.7.02-56.02l1924.95-3330.49c9.99-17.28,28.41-27.93,48.37-27.98h.13c19.91,0,38.32,10.57,48.37,27.77l1945.31,3330.47c10.14,17.32,10.21,38.74.23,56.15-10,17.39-28.53,28.12-48.6,28.12h0Zm-3773.19-112.03h3675.6l-1847.47-3162.95-1828.13,3162.95h0Z"/>
    <path class="cls-3" d="m4776.17,4485.44H938.24c-19.85,0-38.19-10.6-48.12-27.79-9.92-17.18-9.91-38.38.02-55.55l1908.87-3302.66c9.9-17.13,28.18-27.7,47.96-27.75h.13c19.74,0,38,10.48,47.97,27.53l1929.06,3302.65c10.05,17.18,10.12,38.41.23,55.68-9.92,17.24-28.29,27.89-48.19,27.89h0Zm-3741.67-111.1h3644.89l-1832.03-3136.53-1812.86,3136.53h0Z"/>
  </g>
  <g id="Livello_6" data-name="Livello 6">
    <g>
      <path class="cls-3" d="m3979.36,4201.62s-427.94-680.32-565.1-680.32-351.13,230.43-351.13,230.43l-345.65-257.86v-691.29s-5.49-87.78-93.27-104.24c-87.78-16.46-424.19-32.68-460.86-16.46-36.67,16.22-175.56,279.81-148.13,362.1,27.43,82.3,43.89,120.7,65.84,104.24,21.95-16.46,45.63-71.41,45.63-71.41l107.99,93.36s-471.83,877.83-466.35,932.69c5.49,54.86,93.27,109.73,120.7,65.84,27.43-43.89,356.8-645.1,356.8-645.1l182.97,170.21,8.87,387.11s5.49,27.43,32.92,60.35c27.43,32.92,109.73,93.27,109.73,38.41s-5.49-460.86-5.49-460.86c0,0,0-87.78-71.32-175.57-71.32-87.78-121.52-121.77-121.52-121.77l46.81-89.36,146.03,117.86s-16.46,104.24,54.86,148.13c71.32,43.89,76.81-27.43,76.81-27.43l285.29,241.4-318.21,389.54h1305.77Zm-1728.22-1091.8l-104.24-93.27,93.27-192.02,192.02,10.97-181.05,274.32Zm213.97,175.57l98.75-186.54,18.13,271.57-116.88-85.03Z"/>
      <circle class="cls-3" cx="2838.19" cy="2605.07" r="153.62" transform="translate(-305.98 4831.26) rotate(-77.85)"/>
    </g>
  </g>
</svg>