<?xml version="1.0" encoding="UTF-8"?>
<!DOCTYPE svg PUBLIC "-//W3C//DTD SVG 1.1//EN" "http://www.w3.org/Graphics/SVG/1.1/DTD/svg11.dtd">
<!-- Creator: CorelDRAW -->
<svg xmlns="http://www.w3.org/2000/svg" xml:space="preserve" width="64px" height="64px" version="1.1" style="shape-rendering:geometricPrecision; text-rendering:geometricPrecision; image-rendering:optimizeQuality; fill-rule:evenodd; clip-rule:evenodd"
viewBox="0 0 64000 64000"
 xmlns:xlink="http://www.w3.org/1999/xlink">
 <defs>
  <style type="text/css">
   <![CDATA[
    .fil0 {fill:black}
   ]]>
  </style>
 </defs>
 <g id="Layer_x0020_1">
  <metadata id="CorelCorpID_0Corel-Layer"/>
  <path class="fil0" d="M14126 9725l2448 0c721,113 1423,-1752 1624,-2418 -1387,-3056 -421,-4909 894,-6206 2713,-2681 8500,-115 7052,3938l11 2425c2,427 -329,681 -741,574l-204 -53 -894 1732c-212,410 -891,807 -1529,608l-436 -135c-119,-31 -200,-96 -238,-33l-421 685c-69,113 118,291 208,306l2690 1049c1444,562 3142,2258 3335,4658l735 9150 4111 5065c88,108 96,253 22,371 -73,118 -209,173 -344,141l-4868 -1150c-63,-15 -252,-87 -410,-258l-1807 -1967c-586,-638 -704,-1243 -766,-1830l-505 -4814c-22,-213 -318,-272 -361,11l-1110 7323c-15,92 -61,165 -138,218 -76,51 -162,67 -252,46l-12237 -2900c-168,-40 -274,-208 -238,-377l1890 -8973c49,-232 -45,-454 -229,-602 -185,-149 -424,-197 -638,-97l-4950 2321 -564 6191c-19,211 -187,372 -393,323l-2793 -662c-135,-33 -248,-142 -245,-281l150 -6747c26,-1116 533,-2270 1482,-2858l6563 -4068c1154,-716 2738,-706 4096,-706zm49284 51812l-10429 -13944c-471,-631 -1457,-575 -2027,-33l-5671 5394c-534,508 -1355,536 -1922,65l-1618 -1343c-566,-471 -1421,-478 -1920,63l-8987 9764c-409,444 -573,1025 -349,1586 224,561 740,911 1344,911l30549 0c596,0 1106,-339 1335,-889 230,-550 51,-1097 -305,-1574zm-28306 -25563l3327 3144c1183,1119 2488,1809 4112,1932l10535 805c1656,0 1929,-2086 94,-2394l-9273 -2702 -6672 -2212c-831,-960 -1677,-976 -2814,-1239l-32452 -7522c-1780,-477 -2650,1772 -559,2332l6801 1605c161,37 492,260 496,423l56 2341 -118 14689 -2760 13149c-778,3808 3854,4452 4684,1355l3488 -13233c56,-212 134,-501 162,-719l1710 -12993c25,-191 280,-252 379,-1l4992 12660 520 13941c132,3539 5083,3582 5035,-42l247 -13672c14,-758 -33,-1414 -266,-2135l-3784 -11719c-37,-113 -11,-228 69,-315 80,-87 193,-120 309,-94l11682 2616z"/>
 </g>
</svg>
