<?xml version="1.0" encoding="UTF-8"?>
<svg id="Layer_1" data-name="Layer 1" xmlns="http://www.w3.org/2000/svg" viewBox="0 0 594.69 780.17">
  <path d="m352.24,775.49c0,1.81-.35,3.04-1.03,3.7-.69.65-1.96.98-3.79.98s-3.05-.32-3.72-.96c-.66-.64-1-1.85-1-3.62s.34-3.04,1.03-3.7c.68-.65,1.95-.98,3.79-.98s3.05.32,3.71.96c.67.64,1.01,1.85,1.01,3.62Z"/>
  <g>
    <path d="m547.56,240.45h-42.01l-158.46-158.39c4.06-7.76,6.39-16.57,6.39-25.92,0-30.95-25.18-56.13-56.14-56.13s-56.13,25.18-56.13,56.13c0,9.35,2.33,18.16,6.39,25.92L89.15,240.45h-42.02c-25.99,0-47.13,21.14-47.13,47.13v297.54c0,25.99,21.14,47.13,47.13,47.13h500.43c25.99,0,47.13-21.14,47.13-47.13v-297.54c0-25.99-21.14-47.13-47.13-47.13ZM297.35,19.16c20.39,0,36.98,16.59,36.98,36.98s-16.59,36.98-36.98,36.98-36.97-16.59-36.97-36.98,16.59-36.98,36.97-36.98Zm-37.96,78.21c10.01,9.22,23.31,14.91,37.96,14.91s27.96-5.68,37.96-14.9l143.14,143.07H116.25l143.14-143.08Zm316.15,487.75c0,15.42-12.54,27.97-27.97,27.97H47.13c-15.43,0-27.97-12.55-27.97-27.97v-297.54c0-15.42,12.55-27.97,27.97-27.97h500.43c15.43,0,27.97,12.55,27.97,27.97v297.54Z"/>
    <path d="m500.05,288.34H94.65c-25.77,0-46.75,20.97-46.75,46.75v202.51c0,25.78,20.97,46.75,46.75,46.75h405.4c25.77,0,46.75-20.97,46.75-46.75v-202.51c0-25.78-20.97-46.75-46.75-46.75Zm27.59,249.26c0,15.21-12.38,27.59-27.59,27.59H94.65c-15.21,0-27.59-12.38-27.59-27.59v-202.51c0-15.21,12.38-27.59,27.59-27.59h405.4c15.21,0,27.59,12.38,27.59,27.59v202.51Z"/>
    <path d="m254.56,387.82c-4.96-1.78-10.47.77-12.27,5.74l-23.49,64.87-28.77-28.76c-3.74-3.74-9.8-3.74-13.55,0l-28.83,28.83-25.37-65.15c-1.91-4.93-7.49-7.36-12.4-5.45-4.93,1.92-7.36,7.47-5.44,12.4l30.69,78.82c1.17,3.02,3.79,5.23,6.96,5.9,3.12.69,6.45-.31,8.74-2.6l32.43-32.43,32.64,32.64c1.81,1.81,4.26,2.81,6.77,2.81.69,0,1.39-.07,2.08-.23,3.2-.71,5.82-3.01,6.93-6.09l28.63-79.03c1.8-4.98-.78-10.47-5.74-12.27Z"/>
    <path d="m361.5,401.81c5.29,0,9.58-4.29,9.58-9.58s-4.28-9.58-9.58-9.58h-53.45c-5.29,0-9.58,4.29-9.58,9.58s4.28,9.58,9.58,9.58h17.15v69.07h-17.15c-5.29,0-9.58,4.29-9.58,9.58s4.28,9.58,9.58,9.58h53.45c5.29,0,9.58-4.29,9.58-9.58s-4.28-9.58-9.58-9.58h-17.15v-69.07h17.15Z"/>
    <path d="m459.29,382.65h-36.57c-5.29,0-9.58,4.29-9.58,9.58v88.23c0,5.29,4.28,9.58,9.58,9.58s9.58-4.29,9.58-9.58v-34.53h26.99c17.44,0,31.63-14.19,31.63-31.63s-14.19-31.64-31.63-31.64Zm0,44.11h-26.99v-24.95h26.99c6.88,0,12.47,5.6,12.47,12.48s-5.59,12.47-12.47,12.47Z"/>
  </g>
</svg>