<?xml version="1.0" encoding="UTF-8" standalone="no"?><svg xmlns="http://www.w3.org/2000/svg" xmlns:xlink="http://www.w3.org/1999/xlink" contentStyleType="text/css" height="258px" preserveAspectRatio="none" style="width:904px;height:258px;background:#FFFFFF;" version="1.1" viewBox="0 0 904 258" width="904px" zoomAndPan="magnify"><defs/><g><ellipse cx="461" cy="20" fill="#222222" rx="10" ry="10" style="stroke:#222222;stroke-width:1.0;"/><polygon fill="#F1F1F1" points="354.5,50,567.5,50,579.5,62.8047,567.5,75.6094,354.5,75.6094,342.5,62.8047,354.5,50" style="stroke:#181818;stroke-width:0.5;"/><text fill="#000000" font-family="sans-serif" font-size="11" lengthAdjust="spacing" textLength="213" x="354.5" y="60.2104">are materials properties or boundary</text><text fill="#000000" font-family="sans-serif" font-size="11" lengthAdjust="spacing" textLength="135" x="370.5" y="73.0151">temperature dependent</text><text fill="#000000" font-family="sans-serif" font-size="11" lengthAdjust="spacing" textLength="23" x="319.5" y="60.2104">true</text><text fill="#000000" font-family="sans-serif" font-size="11" lengthAdjust="spacing" textLength="28" x="579.5" y="60.2104">false</text><rect fill="#F1F1F1" height="33.9688" rx="12.5" ry="12.5" style="stroke:#181818;stroke-width:0.5;" width="141" x="160" y="85.6094"/><text fill="#000000" font-family="sans-serif" font-size="12" lengthAdjust="spacing" textLength="121" x="170" y="106.748">Non-Linear Analysis</text><polygon fill="#F1F1F1" points="172.5,139.5781,288.5,139.5781,300.5,151.5781,288.5,163.5781,172.5,163.5781,160.5,151.5781,172.5,139.5781" style="stroke:#181818;stroke-width:0.5;"/><text fill="#000000" font-family="sans-serif" font-size="11" lengthAdjust="spacing" textLength="108" x="176.5" y="155.3862">Time Dependence?</text><text fill="#000000" font-family="sans-serif" font-size="11" lengthAdjust="spacing" textLength="23" x="133.5" y="148.9839">true</text><text fill="#000000" font-family="sans-serif" font-size="11" lengthAdjust="spacing" textLength="28" x="300.5" y="148.9839">false</text><rect fill="#F1F1F1" height="33.9688" rx="12.5" ry="12.5" style="stroke:#181818;stroke-width:0.5;" width="204" x="11" y="173.5781"/><text fill="#000000" font-family="sans-serif" font-size="12" lengthAdjust="spacing" textLength="184" x="21" y="194.7168">Non-Linear Transient Analysis</text><ellipse cx="113" cy="237.5469" fill="none" rx="10" ry="10" style="stroke:#222222;stroke-width:1.5;"/><line style="stroke:#222222;stroke-width:2.5;" x1="106.8128" x2="119.1872" y1="231.3597" y2="243.7341"/><line style="stroke:#222222;stroke-width:2.5;" x1="119.1872" x2="106.8128" y1="231.3597" y2="243.7341"/><rect fill="#F1F1F1" height="33.9688" rx="12.5" ry="12.5" style="stroke:#181818;stroke-width:0.5;" width="226" x="235" y="173.5781"/><text fill="#000000" font-family="sans-serif" font-size="12" lengthAdjust="spacing" textLength="206" x="245" y="194.7168">Non-Linear Steady State Analysis</text><ellipse cx="348" cy="237.5469" fill="none" rx="10" ry="10" style="stroke:#222222;stroke-width:1.5;"/><line style="stroke:#222222;stroke-width:2.5;" x1="341.8128" x2="354.1872" y1="231.3597" y2="243.7341"/><line style="stroke:#222222;stroke-width:2.5;" x1="354.1872" x2="341.8128" y1="231.3597" y2="243.7341"/><rect fill="#F1F1F1" height="33.9688" rx="12.5" ry="12.5" style="stroke:#181818;stroke-width:0.5;" width="112" x="635.5" y="85.6094"/><text fill="#000000" font-family="sans-serif" font-size="12" lengthAdjust="spacing" textLength="92" x="645.5" y="106.748">Linear Analysis</text><polygon fill="#F1F1F1" points="633.5,139.5781,749.5,139.5781,761.5,151.5781,749.5,163.5781,633.5,163.5781,621.5,151.5781,633.5,139.5781" style="stroke:#181818;stroke-width:0.5;"/><text fill="#000000" font-family="sans-serif" font-size="11" lengthAdjust="spacing" textLength="108" x="637.5" y="155.3862">Time Dependence?</text><text fill="#000000" font-family="sans-serif" font-size="11" lengthAdjust="spacing" textLength="23" x="594.5" y="148.9839">true</text><text fill="#000000" font-family="sans-serif" font-size="11" lengthAdjust="spacing" textLength="28" x="761.5" y="148.9839">false</text><rect fill="#F1F1F1" height="33.9688" rx="12.5" ry="12.5" style="stroke:#181818;stroke-width:0.5;" width="175" x="501" y="173.5781"/><text fill="#000000" font-family="sans-serif" font-size="12" lengthAdjust="spacing" textLength="155" x="511" y="194.7168">Linear Transient Analysis</text><ellipse cx="588.5" cy="237.5469" fill="none" rx="10" ry="10" style="stroke:#222222;stroke-width:1.5;"/><line style="stroke:#222222;stroke-width:2.5;" x1="582.3128" x2="594.6872" y1="231.3597" y2="243.7341"/><line style="stroke:#222222;stroke-width:2.5;" x1="594.6872" x2="582.3128" y1="231.3597" y2="243.7341"/><rect fill="#F1F1F1" height="33.9688" rx="12.5" ry="12.5" style="stroke:#181818;stroke-width:0.5;" width="197" x="696" y="173.5781"/><text fill="#000000" font-family="sans-serif" font-size="12" lengthAdjust="spacing" textLength="177" x="706" y="194.7168">Linear Steady State Analysis</text><ellipse cx="794.5" cy="237.5469" fill="none" rx="10" ry="10" style="stroke:#222222;stroke-width:1.5;"/><line style="stroke:#222222;stroke-width:2.5;" x1="788.3128" x2="800.6872" y1="231.3597" y2="243.7341"/><line style="stroke:#222222;stroke-width:2.5;" x1="800.6872" x2="788.3128" y1="231.3597" y2="243.7341"/><line style="stroke:#181818;stroke-width:1.0;" x1="113" x2="113" y1="207.5469" y2="227.5469"/><polygon fill="#181818" points="109,217.5469,113,227.5469,117,217.5469,113,221.5469" style="stroke:#181818;stroke-width:1.0;"/><line style="stroke:#181818;stroke-width:1.0;" x1="348" x2="348" y1="207.5469" y2="227.5469"/><polygon fill="#181818" points="344,217.5469,348,227.5469,352,217.5469,348,221.5469" style="stroke:#181818;stroke-width:1.0;"/><line style="stroke:#181818;stroke-width:1.0;" x1="160.5" x2="113" y1="151.5781" y2="151.5781"/><line style="stroke:#181818;stroke-width:1.0;" x1="113" x2="113" y1="151.5781" y2="173.5781"/><polygon fill="#181818" points="109,163.5781,113,173.5781,117,163.5781,113,167.5781" style="stroke:#181818;stroke-width:1.0;"/><line style="stroke:#181818;stroke-width:1.0;" x1="300.5" x2="348" y1="151.5781" y2="151.5781"/><line style="stroke:#181818;stroke-width:1.0;" x1="348" x2="348" y1="151.5781" y2="173.5781"/><polygon fill="#181818" points="344,163.5781,348,173.5781,352,163.5781,348,167.5781" style="stroke:#181818;stroke-width:1.0;"/><line style="stroke:#181818;stroke-width:1.0;" x1="230.5" x2="230.5" y1="119.5781" y2="139.5781"/><polygon fill="#181818" points="226.5,129.5781,230.5,139.5781,234.5,129.5781,230.5,133.5781" style="stroke:#181818;stroke-width:1.0;"/><line style="stroke:#181818;stroke-width:1.0;" x1="588.5" x2="588.5" y1="207.5469" y2="227.5469"/><polygon fill="#181818" points="584.5,217.5469,588.5,227.5469,592.5,217.5469,588.5,221.5469" style="stroke:#181818;stroke-width:1.0;"/><line style="stroke:#181818;stroke-width:1.0;" x1="794.5" x2="794.5" y1="207.5469" y2="227.5469"/><polygon fill="#181818" points="790.5,217.5469,794.5,227.5469,798.5,217.5469,794.5,221.5469" style="stroke:#181818;stroke-width:1.0;"/><line style="stroke:#181818;stroke-width:1.0;" x1="621.5" x2="588.5" y1="151.5781" y2="151.5781"/><line style="stroke:#181818;stroke-width:1.0;" x1="588.5" x2="588.5" y1="151.5781" y2="173.5781"/><polygon fill="#181818" points="584.5,163.5781,588.5,173.5781,592.5,163.5781,588.5,167.5781" style="stroke:#181818;stroke-width:1.0;"/><line style="stroke:#181818;stroke-width:1.0;" x1="761.5" x2="794.5" y1="151.5781" y2="151.5781"/><line style="stroke:#181818;stroke-width:1.0;" x1="794.5" x2="794.5" y1="151.5781" y2="173.5781"/><polygon fill="#181818" points="790.5,163.5781,794.5,173.5781,798.5,163.5781,794.5,167.5781" style="stroke:#181818;stroke-width:1.0;"/><line style="stroke:#181818;stroke-width:1.0;" x1="691.5" x2="691.5" y1="119.5781" y2="139.5781"/><polygon fill="#181818" points="687.5,129.5781,691.5,139.5781,695.5,129.5781,691.5,133.5781" style="stroke:#181818;stroke-width:1.0;"/><line style="stroke:#181818;stroke-width:1.0;" x1="342.5" x2="230.5" y1="62.8047" y2="62.8047"/><line style="stroke:#181818;stroke-width:1.0;" x1="230.5" x2="230.5" y1="62.8047" y2="85.6094"/><polygon fill="#181818" points="226.5,75.6094,230.5,85.6094,234.5,75.6094,230.5,79.6094" style="stroke:#181818;stroke-width:1.0;"/><line style="stroke:#181818;stroke-width:1.0;" x1="579.5" x2="691.5" y1="62.8047" y2="62.8047"/><line style="stroke:#181818;stroke-width:1.0;" x1="691.5" x2="691.5" y1="62.8047" y2="85.6094"/><polygon fill="#181818" points="687.5,75.6094,691.5,85.6094,695.5,75.6094,691.5,79.6094" style="stroke:#181818;stroke-width:1.0;"/><line style="stroke:#181818;stroke-width:1.0;" x1="461" x2="461" y1="30" y2="50"/><polygon fill="#181818" points="457,40,461,50,465,40,461,44" style="stroke:#181818;stroke-width:1.0;"/><!--MD5=[d6c8c5672e4e4d667704eaf9c79664ac]
@startuml
start

if (are materials properties or boundary
    temperature dependent) then (true)
  :Non-Linear Analysis;
  if ( Time Dependence? ) then ( true )
  :Non-Linear Transient Analysis;
  end
  else (false)
  :Non-Linear Steady State Analysis;
  end
  endif
else (false)
  :Linear Analysis;
  if ( Time Dependence? ) then ( true )
  :Linear Transient Analysis;
  end
  else (false)
  :Linear Steady State Analysis;
  end
  endif
endif
@enduml

PlantUML version 1.2022.12(Sun Oct 23 18:12:26 GMT 2022)
(GPL source distribution)
Java Runtime: OpenJDK Runtime Environment
JVM: OpenJDK 64-Bit Server VM
Default Encoding: UTF-8
Language: en
Country: US
--></g></svg>