<svg width="523" height="247" viewBox="0 0 523 247" fill="none" xmlns="http://www.w3.org/2000/svg"><path d="M.37 213.691v-14.612c0-9.632 2.814-17.424 8.443-23.379 5.625-5.95 14.015-8.928 25.164-8.928 7.035 0 12.932 1.218 17.696 3.652 4.761 2.435 7.144 5.17 7.144 8.199 0 1.841-.677 3.681-2.03 5.52-1.354 1.841-2.95 2.76-4.789 2.76-.544 0-2.462-.812-5.764-2.436-3.302-1.623-6.956-2.435-10.958-2.435-11.907 0-17.859 5.7-17.859 17.095v14.516c0 11.397 6.007 17.095 18.021 17.095 4.112 0 7.819-.864 11.122-2.598 3.3-1.73 5.276-2.597 5.925-2.597 2.164 0 3.921.867 5.276 2.597 1.353 1.734 2.03 3.572 2.03 5.52 0 3.031-2.491 5.844-7.469 8.443-4.98 2.597-11.04 3.895-18.182 3.895-11.259 0-19.702-2.946-25.327-8.847-5.63-5.899-8.443-13.719-8.443-23.46zm85.073-12.799h26.951c2.38 0 3.977-.32 4.789-.96.812-.639 1.218-1.918 1.218-3.836 0-4.259-1.57-7.879-4.708-10.862-3.14-2.982-7.038-4.476-11.69-4.476-4.546 0-8.442 1.415-11.689 4.235-3.247 2.823-4.87 6.419-4.87 10.787v5.112zm-17.046 13.8v-15.424c0-8.55 3.3-15.936 9.904-22.162 6.6-6.222 14.554-9.334 23.865-9.334 8.873 0 16.479 2.814 22.809 8.446 6.332 5.632 9.498 12.738 9.498 21.316 0 3.312-.38 5.988-1.136 8.027-.758 2.043-1.948 3.477-3.571 4.304-1.624.829-3.141 1.353-4.547 1.573-1.408.222-3.246.331-5.52.331H85.443v3.761c0 5.454 1.948 9.79 5.844 13.006 3.898 3.217 8.984 4.826 15.262 4.826 4.437 0 8.63-1.036 12.582-3.109 3.951-2.068 6.358-3.107 7.226-3.107 1.838 0 3.409.871 4.708 2.607 1.298 1.739 1.948 3.424 1.948 5.052 0 2.673-2.598 5.376-7.794 8.103-5.194 2.729-11.582 4.09-19.157 4.09-11.04 0-20.079-2.974-27.113-8.928-7.036-5.952-10.552-13.745-10.552-23.378z" fill="#99D2BF"/><path d="M148.273 240.018v-65.752c0-1.624.784-2.948 2.355-3.979 1.567-1.027 3.597-1.541 6.088-1.541 2.055 0 3.84.52 5.357 1.56 1.515 1.04 2.274 2.381 2.274 4.022v5.914c4.652-8.312 11.852-12.471 21.593-12.471 4.761 0 9.009 1.504 12.744 4.511 3.733 3.005 6.575 6.968 8.524 11.884 2.704-5.355 6.251-9.427 10.633-12.215 4.384-2.785 9.011-4.18 13.882-4.18 7.684 0 14.312 2.896 19.888 8.685 5.573 5.792 8.361 13.558 8.361 23.299v40.263c0 1.408-.868 2.706-2.597 3.896-1.734 1.192-3.735 1.786-6.008 1.786-2.166 0-4.115-.594-5.844-1.781-1.734-1.187-2.598-2.481-2.598-3.885v-40.16c0-5.29-1.517-9.444-4.546-12.468-3.031-3.024-6.55-4.536-10.552-4.536-4.006 0-7.551 1.512-10.635 4.536-3.085 3.024-4.627 7.07-4.627 12.142v40.647c0 1.837-.84 3.212-2.516 4.129-1.68.919-3.709 1.376-6.089 1.376-2.165 0-4.115-.457-5.844-1.376-1.732-.917-2.597-2.292-2.597-4.129v-40.483c0-4.858-1.49-8.854-4.466-11.985-2.977-3.129-6.522-4.695-10.634-4.695-4.115 0-7.658 1.512-10.634 4.536-2.978 3.024-4.464 7.126-4.464 12.306v40.16c0 1.404-.868 2.698-2.598 3.885-1.732 1.187-3.734 1.781-6.007 1.781-2.383 0-4.384-.594-6.007-1.786-1.624-1.19-2.436-2.488-2.436-3.896zm142.87-25.375c0 4.409 1.624 8.361 4.87 11.854 3.248 3.496 7.145 5.24 11.69 5.24 4.436 0 8.304-1.744 11.608-5.24 3.3-3.493 4.952-7.445 4.952-11.854v-14.838c0-4.301-1.652-8.17-4.952-11.61-3.304-3.44-7.172-5.163-11.608-5.163-4.545 0-8.442 1.723-11.69 5.163-3.246 3.44-4.87 7.309-4.87 11.61v14.838zm-17.048.048v-14.936c0-8.55 3.3-16.018 9.906-22.406 6.6-6.385 14.502-9.577 23.702-9.577 8.982 0 16.828 3.165 23.54 9.497 6.71 6.331 10.067 13.827 10.067 22.486v14.936c0 8.442-3.384 15.938-10.147 22.485-6.766 6.549-14.586 9.823-23.46 9.823-8.985 0-16.832-3.247-23.541-9.742-6.713-6.493-10.067-14.016-10.067-22.566z" fill="#E3B82F"/><path d="M351.375 234.011c0-1.624.572-3.301 1.717-5.033 1.147-1.729 2.536-2.599 4.174-2.599.981 0 2.346.638 4.09 1.908 1.747 1.274 4.091 2.544 7.036 3.816 2.946 1.274 6.491 1.908 10.636 1.908 9.272 0 13.91-2.94 13.91-8.82 0-3.158-1.355-5.637-4.059-7.433-2.707-1.796-5.981-3.212-9.823-4.247a173.021 173.021 0 01-11.445-3.51c-3.791-1.307-7.039-3.539-9.741-6.698-2.707-3.157-4.06-7.242-4.06-12.253 0-6.356 2.273-11.825 6.818-16.407 4.547-4.581 11.528-6.872 20.944-6.872 6.17 0 11.772.948 16.804 2.842 5.032 1.894 7.55 4.14 7.55 6.737 0 1.517-.626 3.275-1.867 5.276-1.247 2.004-2.788 3.004-4.628 3.004-.648 0-2.868-.812-6.656-2.435-3.789-1.624-7.415-2.436-10.877-2.436-4.33 0-7.607.982-9.823 2.94-2.22 1.96-3.328 4.14-3.328 6.535 0 2.613 1.352 4.684 4.059 6.207 2.705 1.525 6.006 2.778 9.904 3.758 3.896.979 7.732 2.175 11.512 3.591 3.78 1.416 6.998 3.865 9.658 7.352 2.662 3.485 3.994 7.951 3.994 13.395 0 7.002-2.491 12.498-7.47 16.484-4.978 3.986-12.012 5.977-21.105 5.977-7.685 0-14.261-1.351-19.725-4.059-5.467-2.702-8.199-5.681-8.199-8.928zm70.46 6.007v-65.752c0-1.624.784-2.948 2.354-3.979 1.567-1.027 3.596-1.541 6.087-1.541 2.489 0 4.547.514 6.171 1.541 1.622 1.031 2.434 2.355 2.434 3.979v65.752c0 1.408-.84 2.706-2.517 3.896-1.679 1.192-3.708 1.786-6.088 1.786-2.381 0-4.383-.594-6.007-1.786-1.624-1.19-2.434-2.488-2.434-3.896z" fill="#C8325A"/><path d="M451.869 234.011c0-1.624.572-3.301 1.717-5.033 1.147-1.729 2.536-2.599 4.173-2.599.982 0 2.347.638 4.091 1.908 1.747 1.274 4.091 2.544 7.036 3.816 2.945 1.274 6.491 1.908 10.636 1.908 9.272 0 13.909-2.94 13.909-8.82 0-3.158-1.354-5.637-4.058-7.433-2.707-1.796-5.982-3.212-9.823-4.247a172.655 172.655 0 01-11.445-3.51c-3.791-1.307-7.039-3.539-9.742-6.698-2.706-3.157-4.06-7.242-4.06-12.253 0-6.356 2.274-11.825 6.819-16.407 4.547-4.581 11.528-6.872 20.944-6.872 6.169 0 11.772.948 16.804 2.842 5.032 1.894 7.549 4.14 7.549 6.737 0 1.517-.625 3.275-1.866 5.276-1.247 2.004-2.788 3.004-4.628 3.004-.648 0-2.868-.812-6.656-2.435-3.79-1.624-7.415-2.436-10.878-2.436-4.329 0-7.606.982-9.822 2.94-2.22 1.96-3.328 4.14-3.328 6.535 0 2.613 1.352 4.684 4.058 6.207 2.706 1.525 6.007 2.778 9.904 3.758 3.896.979 7.732 2.175 11.512 3.591 3.78 1.416 6.999 3.865 9.659 7.352 2.661 3.485 3.993 7.951 3.993 13.395 0 7.002-2.49 12.498-7.469 16.484-4.979 3.986-12.012 5.977-21.105 5.977-7.686 0-14.262-1.351-19.726-4.059-5.466-2.702-8.198-5.681-8.198-8.928z" fill="#99D2BF"/><path d="M38.4 107.427H3.884V72.911H38.4v34.516zm92.041 0H95.925V72.911h34.516v34.516zm46.022 0h-34.515V72.911h34.515v34.516zm46.018 0h-34.514V72.911h34.514v34.516zm46.026 0h-34.515V72.911h34.515v34.516zm46.02 0h-34.516V72.911h34.516v34.516zm46.021 0h-34.516V72.911h34.516v34.516zm46.023 0h-34.516V72.911h34.516v34.516zm46.017 0h-34.516V72.911h34.516v34.516zm46.023 0h-34.516V72.911h34.516v34.516zM38.4 153.444H3.884v-34.516H38.4v34.516zm46.019 0H49.903v-34.516h34.516v34.516zm46.022 0H95.925v-34.516h34.516v34.516zm46.022 0h-34.515v-34.516h34.515v34.516zm46.018 0h-34.514v-34.516h34.514v34.516zm46.026 0h-34.515v-34.516h34.515v34.516zm46.02 0h-34.516v-34.516h34.516v34.516zm92.044 0h-34.516v-34.516h34.516v34.516zm46.017 0h-34.516v-34.516h34.516v34.516zm46.023 0h-34.516v-34.516h34.516v34.516z" stroke="#99D2BF" stroke-width="2" stroke-miterlimit="10"/><path d="M337.583 83.499h-34.516V48.98h34.516V83.5zm-138.678 44.645h-34.516V93.629h34.516v34.515zm92.675 0h-34.516V93.629h34.516v34.515z" stroke="#E3B82F" stroke-width="2" stroke-miterlimit="10"/><path d="M245.583 83.499h-34.516V48.98h34.516V83.5z" fill="#E3B82F" stroke="#E3B82F" stroke-width="1.133" stroke-miterlimit="10"/><path d="M429.58 83.499h-34.516V48.98h34.516V83.5zm92-47.351h-34.516V1.632h34.516v34.516z" stroke="#C8325A" stroke-width="2" stroke-miterlimit="10"/><path d="M475.577 128.144h-34.516V93.629h34.516v34.515z" fill="#C8325A"/></svg>