<svg width="123" height="26" viewBox="0 0 123 26" fill="none" xmlns="http://www.w3.org/2000/svg"><path d="M.772 26V.62h16.596v3.672H5.38v7.164h11.232v3.672H5.38V26H.772zm20.215 0V.62H37.87v3.672H25.415v6.984h11.664v3.672H25.415v7.38H37.87V26H20.987zm21.48 0V.62h16.884v3.672H46.895v6.984H58.56v3.672H46.895v7.38h12.456V26H42.467zm21.48 0V.62h4.609v21.456h12.168V26H63.948zm26.588-1.44v-7.308h-7.128v-3.168h7.128V6.992h3.312v7.092h7.128v3.168h-7.128v7.308h-3.312zm21.586 0v-7.308h-7.128v-3.168h7.128V6.992h3.312v7.092h7.128v3.168h-7.128v7.308h-3.312z" fill="url(#paint0_linear_2_1314)"/><defs><linearGradient id="paint0_linear_2_1314" x1="-2" y1="25" x2="125" y2="25" gradientUnits="userSpaceOnUse"><stop offset=".021" stop-color="#AEA8A0"/><stop offset=".141" stop-color="#8498D2"/><stop offset=".318" stop-color="#B6A293"/><stop offset=".849" stop-color="#9E3029"/></linearGradient></defs></svg>