<svg xmlns="http://www.w3.org/2000/svg" viewBox="0 0 100 100"><defs><style>.cls-1{fill:#a2d5f2;}.cls-2{fill:#022e57;}</style></defs><g id="object"><g id="_26" data-name="26"><path class="cls-1" d="M43.958,27.782a1.039,1.039,0,1,1-1.039-1.039A1.039,1.039,0,0,1,43.958,27.782Zm17.332-1H47.024a1,1,0,0,0,0,2H61.29a1,1,0,0,0,0-2ZM42.919,31.286a1.039,1.039,0,1,0,1.039,1.039A1.039,1.039,0,0,0,42.919,31.286Zm18.371.039H47.024a1,1,0,0,0,0,2H61.29a1,1,0,0,0,0-2ZM43.958,36.869a1.039,1.039,0,1,0-1.039,1.038A1.039,1.039,0,0,0,43.958,36.869Zm17.332,1a1,1,0,0,0,0-2H47.024a1,1,0,0,0,0,2ZM45.643,49.591a1.039,1.039,0,1,0,1.039,1.039A1.039,1.039,0,0,0,45.643,49.591Zm-4.105.039H27.272a1,1,0,0,0,0,2H41.538a1,1,0,0,0,0-2Zm4.105,4.5a1.039,1.039,0,1,0,1.039,1.039A1.039,1.039,0,0,0,45.643,54.135Zm-4.105.039H27.272a1,1,0,0,0,0,2H41.538a1,1,0,0,0,0-2Zm4.105,4.5a1.039,1.039,0,1,0,1.039,1.039A1.039,1.039,0,0,0,45.643,58.678Zm-4.105.039H27.272a1,1,0,0,0,0,2H41.538a1,1,0,0,0,0-2ZM76.177,89.742a1,1,0,0,0-1,1v1.81a2.414,2.414,0,0,1-2.412,2.411H18.647a2.414,2.414,0,0,1-2.412-2.411v-81.1a2.414,2.414,0,0,1,2.412-2.411H72.765a2.414,2.414,0,0,1,2.412,2.411v46.7a1,1,0,0,0,2,0v-46.7a4.417,4.417,0,0,0-4.412-4.411H18.647a4.417,4.417,0,0,0-4.412,4.411v81.1a4.417,4.417,0,0,0,4.412,4.411H72.765a4.417,4.417,0,0,0,4.412-4.411v-1.81A1,1,0,0,0,76.177,89.742ZM20.235,58.15a1,1,0,1,0-2,0V73.145a1,1,0,0,0,2,0Zm-1,17.639a1,1,0,0,0-1,1v5.489a1,1,0,0,0,2,0V76.789A1,1,0,0,0,19.235,75.789Zm8.524-34.121V39.947h-4.35a3.873,3.873,0,0,1-3.869-3.869V30.651a3.873,3.873,0,0,1,3.869-3.87h10.7a3.874,3.874,0,0,1,3.87,3.87v5.427a3.874,3.874,0,0,1-3.87,3.869H29.759v1.721h2.566a1,1,0,0,1,0,2H25.192a1,1,0,0,1,0-2ZM63.933,59.275a4.1,4.1,0,1,1,3.963-5.1h3.4a1,1,0,0,1,0,2H67.9A4.1,4.1,0,0,1,63.933,59.275Zm-10.862-3.1h3.893a7.052,7.052,0,0,0,6.969,6.047,1,1,0,1,0,0-2,5.048,5.048,0,1,1,0-10.095,1,1,0,1,0,0-2,7.053,7.053,0,0,0-6.969,6.048H53.071a1,1,0,0,0,0,2Zm27.62,17.379a1.029,1.029,0,0,1-1.414,0l-1.824-1.824a1,1,0,0,1,0-1.414l2.7-2.7a4.32,4.32,0,0,0-4.98,5.818,1,1,0,0,1-.221,1.08L70.24,79.224a1.09,1.09,0,0,0,1.542,1.542l4.709-4.709a1,1,0,0,1,1.08-.221,4.32,4.32,0,0,0,5.818-4.98Zm8.986,1.277a13.5,13.5,0,1,1-13.5-13.5A13.515,13.515,0,0,1,89.677,74.83Zm-5.092-6.253a1,1,0,0,0-1.561-.185l-3.04,3.04-.41-.41,3.04-3.041a1,1,0,0,0-.185-1.56A6.31,6.31,0,0,0,73.1,73.54l-4.27,4.27a3.09,3.09,0,0,0,4.37,4.37l4.27-4.27a6.311,6.311,0,0,0,7.119-9.333ZM58.24,20.483H33.046a4.05,4.05,0,1,1,0-8.1H58.24a4.05,4.05,0,1,1,0,8.1Z"/></g><g id="_15" data-name="15"><path class="cls-2" d="M42,25.78a1.039,1.039,0,1,1-1.039-1.039A1.039,1.039,0,0,1,42,25.78Zm17.332-1H45.068a1,1,0,0,0,0,2H59.334a1,1,0,0,0,0-2Zm-18.371,4.5A1.039,1.039,0,1,0,42,30.323,1.04,1.04,0,0,0,40.963,29.284Zm18.371.039H45.068a1,1,0,0,0,0,2H59.334a1,1,0,0,0,0-2ZM42,34.867a1.039,1.039,0,1,0-1.039,1.039A1.039,1.039,0,0,0,42,34.867Zm17.332,1a1,1,0,0,0,0-2H45.068a1,1,0,0,0,0,2ZM43.687,47.59a1.039,1.039,0,1,0,1.039,1.039A1.039,1.039,0,0,0,43.687,47.59Zm-4.1.038H25.316a1,1,0,0,0,0,2H39.582a1,1,0,1,0,0-2Zm4.1,4.505a1.039,1.039,0,1,0,1.039,1.039A1.039,1.039,0,0,0,43.687,52.133Zm-4.1.039H25.316a1,1,0,0,0,0,2H39.582a1,1,0,0,0,0-2Zm4.1,4.5a1.039,1.039,0,1,0,1.039,1.039A1.039,1.039,0,0,0,43.687,56.676Zm-4.1.039H25.316a1,1,0,0,0,0,2H39.582a1,1,0,0,0,0-2ZM74.221,87.741a1,1,0,0,0-1,1V90.55a2.414,2.414,0,0,1-2.412,2.411H16.691a2.414,2.414,0,0,1-2.412-2.411V9.45a2.414,2.414,0,0,1,2.412-2.411H70.809A2.414,2.414,0,0,1,73.221,9.45v46.7a1,1,0,0,0,2,0V9.45a4.417,4.417,0,0,0-4.412-4.411H16.691A4.417,4.417,0,0,0,12.279,9.45v81.1a4.417,4.417,0,0,0,4.412,4.411H70.809a4.417,4.417,0,0,0,4.412-4.411V88.741A1,1,0,0,0,74.221,87.741ZM18.279,56.148a1,1,0,0,0-2,0v15a1,1,0,0,0,2,0Zm-1,17.639a1,1,0,0,0-1,1v5.489a1,1,0,0,0,2,0V74.787A1,1,0,0,0,17.279,73.787ZM25.8,39.667V37.945h-4.35a3.873,3.873,0,0,1-3.869-3.869V28.649a3.873,3.873,0,0,1,3.869-3.869h10.7a3.873,3.873,0,0,1,3.869,3.869v5.427a3.873,3.873,0,0,1-3.869,3.869H27.8v1.722h2.566a1,1,0,0,1,0,2H23.236a1,1,0,0,1,0-2Zm-4.35-3.722h10.7a1.871,1.871,0,0,0,1.869-1.869V28.649a1.871,1.871,0,0,0-1.869-1.869h-10.7a1.871,1.871,0,0,0-1.869,1.869v5.427A1.872,1.872,0,0,0,21.453,35.945ZM61.977,57.273a4.1,4.1,0,1,1,3.963-5.1h3.4a1,1,0,0,1,0,2h-3.4A4.1,4.1,0,0,1,61.977,57.273Zm2.1-4.1a2.1,2.1,0,1,0-2.1,2.1A2.1,2.1,0,0,0,64.078,53.172Zm-12.963,1h3.893a7.053,7.053,0,0,0,6.969,6.048,1,1,0,1,0,0-2,5.048,5.048,0,1,1,0-10.095,1,1,0,1,0,0-2,7.052,7.052,0,0,0-6.969,6.047H51.115a1,1,0,0,0,0,2ZM87.721,72.828a13.5,13.5,0,1,1-13.5-13.5A13.515,13.515,0,0,1,87.721,72.828Zm-2,0a11.5,11.5,0,1,0-11.5,11.5A11.513,11.513,0,0,0,85.721,72.828ZM81.69,74.3a6.308,6.308,0,0,1-6.18,1.614l-4.27,4.269a3.09,3.09,0,1,1-4.37-4.369l4.27-4.27a6.311,6.311,0,0,1,9.333-7.12,1,1,0,0,1,.185,1.56l-3.04,3.042.41.41,3.04-3.041a1,1,0,0,1,1.561.186A6.265,6.265,0,0,1,81.69,74.3Zm-.257-5.441-2.7,2.7a1.029,1.029,0,0,1-1.414,0L75.5,69.728a1,1,0,0,1,0-1.415l2.7-2.7a4.226,4.226,0,0,0-.98-.115,4.324,4.324,0,0,0-4,5.932,1,1,0,0,1-.221,1.08l-4.709,4.71a1.09,1.09,0,0,0,1.542,1.541l4.709-4.709a1,1,0,0,1,1.08-.221,4.32,4.32,0,0,0,5.818-4.98ZM56.284,18.481H31.09a4.05,4.05,0,1,1,0-8.1H56.284a4.05,4.05,0,1,1,0,8.1Zm-25.194-2H56.284a2.05,2.05,0,1,0,0-4.1H31.09a2.05,2.05,0,1,0,0,4.1Z"/></g></g></svg>