<?xml version="1.0" encoding="UTF-8" standalone="no"?><svg xmlns="http://www.w3.org/2000/svg" xmlns:xlink="http://www.w3.org/1999/xlink" contentScriptType="application/ecmascript" contentStyleType="text/css" height="273px" preserveAspectRatio="none" style="width:784px;height:273px;" version="1.1" viewBox="0 0 784 273" width="784px" zoomAndPan="magnify"><defs><filter height="300%" id="fdb6g87rimeea" width="300%" x="-1" y="-1"><feGaussianBlur result="blurOut" stdDeviation="2.0"/><feColorMatrix in="blurOut" result="blurOut2" type="matrix" values="0 0 0 0 0 0 0 0 0 0 0 0 0 0 0 0 0 0 .4 0"/><feOffset dx="4.0" dy="4.0" in="blurOut2" result="blurOut3"/><feBlend in="SourceGraphic" in2="blurOut3" mode="normal"/></filter></defs><g><ellipse cx="396.5" cy="20" fill="#000000" filter="url(#fdb6g87rimeea)" rx="10" ry="10" style="stroke:none;stroke-width:1.0;"/><polygon fill="#FEFECE" filter="url(#fdb6g87rimeea)" points="306,50,487,50,499,64.8457,487,79.6914,306,79.6914,294,64.8457,306,50" style="stroke:#A80036;stroke-width:1.5;"/><text fill="#000000" font-family="sans-serif" font-size="11" lengthAdjust="spacing" textLength="181" x="306" y="61.5801">are materials properties or boundary</text><text fill="#000000" font-family="sans-serif" font-size="11" lengthAdjust="spacing" textLength="116" x="318" y="76.4258">temperature dependent</text><text fill="#000000" font-family="sans-serif" font-size="11" lengthAdjust="spacing" textLength="20" x="274" y="61.5801">true</text><text fill="#000000" font-family="sans-serif" font-size="11" lengthAdjust="spacing" textLength="24" x="499" y="61.5801">false</text><rect fill="#FEFECE" filter="url(#fdb6g87rimeea)" height="36.1953" rx="12.5" ry="12.5" style="stroke:#A80036;stroke-width:1.5;" width="121" x="137" y="89.6914"/><text fill="#000000" font-family="sans-serif" font-size="12" lengthAdjust="spacing" textLength="101" x="147" y="112.3242">Non-Linear Analysis</text><polygon fill="#FEFECE" filter="url(#fdb6g87rimeea)" points="148,145.8867,247,145.8867,259,157.8867,247,169.8867,148,169.8867,136,157.8867,148,145.8867" style="stroke:#A80036;stroke-width:1.5;"/><text fill="#000000" font-family="sans-serif" font-size="11" lengthAdjust="spacing" textLength="93" x="151" y="162.0439">Time Dependence?</text><text fill="#000000" font-family="sans-serif" font-size="11" lengthAdjust="spacing" textLength="20" x="113" y="154.6211">true</text><text fill="#000000" font-family="sans-serif" font-size="11" lengthAdjust="spacing" textLength="24" x="259" y="154.6211">false</text><rect fill="#FEFECE" filter="url(#fdb6g87rimeea)" height="36.1953" rx="12.5" ry="12.5" style="stroke:#A80036;stroke-width:1.5;" width="172" x="11" y="179.8867"/><text fill="#000000" font-family="sans-serif" font-size="12" lengthAdjust="spacing" textLength="152" x="21" y="202.5195">Non-Linear Transient Analysis</text><ellipse cx="97" cy="246.082" fill="#FFFFFF" filter="url(#fdb6g87rimeea)" rx="10" ry="10" style="stroke:#000000;stroke-width:1.5;"/><line style="stroke:#000000;stroke-width:2.5;" x1="90.8128" x2="103.1872" y1="239.8948" y2="252.2692"/><line style="stroke:#000000;stroke-width:2.5;" x1="103.1872" x2="90.8128" y1="239.8948" y2="252.2692"/><rect fill="#FEFECE" filter="url(#fdb6g87rimeea)" height="36.1953" rx="12.5" ry="12.5" style="stroke:#A80036;stroke-width:1.5;" width="190" x="203" y="179.8867"/><text fill="#000000" font-family="sans-serif" font-size="12" lengthAdjust="spacing" textLength="170" x="213" y="202.5195">Non-Linear Steady State Analysis</text><ellipse cx="298" cy="246.082" fill="#FFFFFF" filter="url(#fdb6g87rimeea)" rx="10" ry="10" style="stroke:#000000;stroke-width:1.5;"/><line style="stroke:#000000;stroke-width:2.5;" x1="291.8128" x2="304.1872" y1="239.8948" y2="252.2692"/><line style="stroke:#000000;stroke-width:2.5;" x1="304.1872" x2="291.8128" y1="239.8948" y2="252.2692"/><rect fill="#FEFECE" filter="url(#fdb6g87rimeea)" height="36.1953" rx="12.5" ry="12.5" style="stroke:#A80036;stroke-width:1.5;" width="97" x="547" y="89.6914"/><text fill="#000000" font-family="sans-serif" font-size="12" lengthAdjust="spacing" textLength="77" x="557" y="112.3242">Linear Analysis</text><polygon fill="#FEFECE" filter="url(#fdb6g87rimeea)" points="546,145.8867,645,145.8867,657,157.8867,645,169.8867,546,169.8867,534,157.8867,546,145.8867" style="stroke:#A80036;stroke-width:1.5;"/><text fill="#000000" font-family="sans-serif" font-size="11" lengthAdjust="spacing" textLength="93" x="549" y="162.0439">Time Dependence?</text><text fill="#000000" font-family="sans-serif" font-size="11" lengthAdjust="spacing" textLength="20" x="511" y="154.6211">true</text><text fill="#000000" font-family="sans-serif" font-size="11" lengthAdjust="spacing" textLength="24" x="657" y="154.6211">false</text><rect fill="#FEFECE" filter="url(#fdb6g87rimeea)" height="36.1953" rx="12.5" ry="12.5" style="stroke:#A80036;stroke-width:1.5;" width="148" x="433" y="179.8867"/><text fill="#000000" font-family="sans-serif" font-size="12" lengthAdjust="spacing" textLength="128" x="443" y="202.5195">Linear Transient Analysis</text><ellipse cx="507" cy="246.082" fill="#FFFFFF" filter="url(#fdb6g87rimeea)" rx="10" ry="10" style="stroke:#000000;stroke-width:1.5;"/><line style="stroke:#000000;stroke-width:2.5;" x1="500.8128" x2="513.1872" y1="239.8948" y2="252.2692"/><line style="stroke:#000000;stroke-width:2.5;" x1="513.1872" x2="500.8128" y1="239.8948" y2="252.2692"/><rect fill="#FEFECE" filter="url(#fdb6g87rimeea)" height="36.1953" rx="12.5" ry="12.5" style="stroke:#A80036;stroke-width:1.5;" width="166" x="601" y="179.8867"/><text fill="#000000" font-family="sans-serif" font-size="12" lengthAdjust="spacing" textLength="146" x="611" y="202.5195">Linear Steady State Analysis</text><ellipse cx="684" cy="246.082" fill="#FFFFFF" filter="url(#fdb6g87rimeea)" rx="10" ry="10" style="stroke:#000000;stroke-width:1.5;"/><line style="stroke:#000000;stroke-width:2.5;" x1="677.8128" x2="690.1872" y1="239.8948" y2="252.2692"/><line style="stroke:#000000;stroke-width:2.5;" x1="690.1872" x2="677.8128" y1="239.8948" y2="252.2692"/><line style="stroke:#A80036;stroke-width:1.5;" x1="97" x2="97" y1="216.082" y2="236.082"/><polygon fill="#A80036" points="93,226.082,97,236.082,101,226.082,97,230.082" style="stroke:#A80036;stroke-width:1.0;"/><line style="stroke:#A80036;stroke-width:1.5;" x1="298" x2="298" y1="216.082" y2="236.082"/><polygon fill="#A80036" points="294,226.082,298,236.082,302,226.082,298,230.082" style="stroke:#A80036;stroke-width:1.0;"/><line style="stroke:#A80036;stroke-width:1.5;" x1="136" x2="97" y1="157.8867" y2="157.8867"/><line style="stroke:#A80036;stroke-width:1.5;" x1="97" x2="97" y1="157.8867" y2="179.8867"/><polygon fill="#A80036" points="93,169.8867,97,179.8867,101,169.8867,97,173.8867" style="stroke:#A80036;stroke-width:1.0;"/><line style="stroke:#A80036;stroke-width:1.5;" x1="259" x2="298" y1="157.8867" y2="157.8867"/><line style="stroke:#A80036;stroke-width:1.5;" x1="298" x2="298" y1="157.8867" y2="179.8867"/><polygon fill="#A80036" points="294,169.8867,298,179.8867,302,169.8867,298,173.8867" style="stroke:#A80036;stroke-width:1.0;"/><line style="stroke:#A80036;stroke-width:1.5;" x1="197.5" x2="197.5" y1="125.8867" y2="145.8867"/><polygon fill="#A80036" points="193.5,135.8867,197.5,145.8867,201.5,135.8867,197.5,139.8867" style="stroke:#A80036;stroke-width:1.0;"/><line style="stroke:#A80036;stroke-width:1.5;" x1="507" x2="507" y1="216.082" y2="236.082"/><polygon fill="#A80036" points="503,226.082,507,236.082,511,226.082,507,230.082" style="stroke:#A80036;stroke-width:1.0;"/><line style="stroke:#A80036;stroke-width:1.5;" x1="684" x2="684" y1="216.082" y2="236.082"/><polygon fill="#A80036" points="680,226.082,684,236.082,688,226.082,684,230.082" style="stroke:#A80036;stroke-width:1.0;"/><line style="stroke:#A80036;stroke-width:1.5;" x1="534" x2="507" y1="157.8867" y2="157.8867"/><line style="stroke:#A80036;stroke-width:1.5;" x1="507" x2="507" y1="157.8867" y2="179.8867"/><polygon fill="#A80036" points="503,169.8867,507,179.8867,511,169.8867,507,173.8867" style="stroke:#A80036;stroke-width:1.0;"/><line style="stroke:#A80036;stroke-width:1.5;" x1="657" x2="684" y1="157.8867" y2="157.8867"/><line style="stroke:#A80036;stroke-width:1.5;" x1="684" x2="684" y1="157.8867" y2="179.8867"/><polygon fill="#A80036" points="680,169.8867,684,179.8867,688,169.8867,684,173.8867" style="stroke:#A80036;stroke-width:1.0;"/><line style="stroke:#A80036;stroke-width:1.5;" x1="595.5" x2="595.5" y1="125.8867" y2="145.8867"/><polygon fill="#A80036" points="591.5,135.8867,595.5,145.8867,599.5,135.8867,595.5,139.8867" style="stroke:#A80036;stroke-width:1.0;"/><line style="stroke:#A80036;stroke-width:1.5;" x1="294" x2="197.5" y1="64.8457" y2="64.8457"/><line style="stroke:#A80036;stroke-width:1.5;" x1="197.5" x2="197.5" y1="64.8457" y2="89.6914"/><polygon fill="#A80036" points="193.5,79.6914,197.5,89.6914,201.5,79.6914,197.5,83.6914" style="stroke:#A80036;stroke-width:1.0;"/><line style="stroke:#A80036;stroke-width:1.5;" x1="499" x2="595.5" y1="64.8457" y2="64.8457"/><line style="stroke:#A80036;stroke-width:1.5;" x1="595.5" x2="595.5" y1="64.8457" y2="89.6914"/><polygon fill="#A80036" points="591.5,79.6914,595.5,89.6914,599.5,79.6914,595.5,83.6914" style="stroke:#A80036;stroke-width:1.0;"/><line style="stroke:#A80036;stroke-width:1.5;" x1="396.5" x2="396.5" y1="30" y2="50"/><polygon fill="#A80036" points="392.5,40,396.5,50,400.5,40,396.5,44" style="stroke:#A80036;stroke-width:1.0;"/><!--MD5=[d8dc8145eff85e11ff93a948ef0c81e7]
@startuml
start

if (are materials properties or boundary
    temperature dependent) then (true)
  :Non-Linear Analysis;
  if ( Time Dependence? ) then ( true )
  :Non-Linear Transient Analysis;
  end
  else (false)
  :Non-Linear Steady State Analysis;
  end
  endif
else (false)
  :Linear Analysis;
  if ( Time Dependence? ) then ( true )
  :Linear Transient Analysis;
  end
  else (false)
  :Linear Steady State Analysis;
  end
  endif
endif
@enduml

PlantUML version 1.2021.01(Tue Feb 02 07:55:08 GMT 2021)
(GPL source distribution)
Java Runtime: OpenJDK Runtime Environment
JVM: OpenJDK 64-Bit Server VM
Default Encoding: UTF-8
Language: en
Country: US
--></g></svg>