<?xml version="1.0" encoding="UTF-8" standalone="no"?>
<svg
   xmlns:dc="http://purl.org/dc/elements/1.1/"
   xmlns:cc="http://creativecommons.org/ns#"
   xmlns:rdf="http://www.w3.org/1999/02/22-rdf-syntax-ns#"
   xmlns:svg="http://www.w3.org/2000/svg"
   xmlns="http://www.w3.org/2000/svg"
   viewBox="0 0 127.66625 53.096249"
   height="53.096249"
   width="127.66625"
   xml:space="preserve"
   version="1.1"
   id="svg2"><metadata
     id="metadata8"><rdf:RDF><cc:Work
         rdf:about=""><dc:format>image/svg+xml</dc:format><dc:type
           rdf:resource="http://purl.org/dc/dcmitype/StillImage" /><dc:title></dc:title></cc:Work></rdf:RDF></metadata><defs
     id="defs6" /><g
     transform="matrix(1.25,0,0,-1.25,-0.05375,77.71)"
     id="g10"><g
       id="g4782"><path
         id="path14"
         style="fill:#1b4e9c;fill-opacity:1;fill-rule:nonzero;stroke:none"
         d="m 0.043,27.355 4.687,0 0,34.313 -4.687,0 0,-34.313 z" /><path
         id="path16"
         style="fill:#767fc8;fill-opacity:1;fill-rule:nonzero;stroke:none"
         d="m 25.855,57.754 c -2.96,-0.016 -5.125,-0.445 -6.492,-1.297 -1.367,-0.852 -2.047,-2.234 -2.039,-4.156 0.012,-2.328 0.66,-3.946 1.942,-4.844 1.281,-0.902 3.324,-1.344 6.129,-1.332 1.058,0.004 2.148,0.086 3.269,0.25 l -0.051,11.152 c -1.371,0.153 -2.289,0.227 -2.758,0.227 z M 9.25,27.305 19.148,43.152 c -1.828,0.414 -3.406,1.481 -4.742,3.199 -1.336,1.719 -2.008,3.657 -2.015,5.813 -0.032,6.559 4.078,9.855 12.32,9.895 1.031,0.003 2.676,-0.047 4.93,-0.153 2.257,-0.109 3.472,-0.16 3.644,-0.16 L 33.438,27.41 28.75,27.391 28.684,42.375 C 26.422,42.207 24.766,42.121 23.719,42.117 L 14.625,27.324 9.25,27.305" /><path
         id="path18"
         style="fill:#1b4e9c;fill-opacity:1;fill-rule:nonzero;stroke:none"
         d="m 66.402,27.355 -4.093,22 -7.469,-22.5 -1.188,0 -7.718,22.5 -4.032,-22 -4.437,0 6.437,34.313 2.125,0 8.219,-25.063 7.531,25.063 2.125,0 6.938,-34.313 -4.438,0" /><path
         id="path20"
         style="fill:#1b4e9c;fill-opacity:1;fill-rule:nonzero;stroke:none"
         d="m 85.551,53.168 -5.321,-15.125 10.2,0 -4.879,15.125 z m 11.594,-33.145 -5.375,14.582 -12.782,0 -2.531,-7.25 -5.25,0 13.938,34.813 1.25,0 15.75,-42.477 -5,0.332" /><path
         id="path22"
         style="fill:#1b4e9c;fill-opacity:1;fill-rule:nonzero;stroke:none"
         d="m 0.164,19.691 99.961,0 0,4 -99.961,0 0,-4 z" /><path
         id="path24"
         style="fill:#1b4e9c;fill-opacity:1;fill-rule:nonzero;stroke:none"
         d="m 102.176,19.691 -2.406,0.008 0,0.223 2.406,-0.231" /></g></g></svg>