<?xml version="1.0" encoding="UTF-8" standalone="no"?><svg xmlns="http://www.w3.org/2000/svg" xmlns:xlink="http://www.w3.org/1999/xlink" contentStyleType="text/css" height="260px" preserveAspectRatio="none" style="width:800px;height:260px;background:#FFFFFF;" version="1.1" viewBox="0 0 800 260" width="800px" zoomAndPan="magnify"><defs/><g><ellipse cx="408" cy="20" fill="#222222" rx="10" ry="10" style="stroke:#222222;stroke-width:1.0;"/><polygon fill="#F1F1F1" points="321,50,495,50,507,63.1999,495,76.3998,321,76.3998,309,63.1999,321,50" style="stroke:#181818;stroke-width:0.5;"/><text fill="#000000" font-family="sans-serif" font-size="11" lengthAdjust="spacing" textLength="174" x="321" y="60.9999">are materials properties or boundary</text><text fill="#000000" font-family="sans-serif" font-size="11" lengthAdjust="spacing" textLength="113" x="333" y="74.1998">temperature dependent</text><text fill="#000000" font-family="sans-serif" font-size="11" lengthAdjust="spacing" textLength="19" x="290" y="60.9999">true</text><text fill="#000000" font-family="sans-serif" font-size="11" lengthAdjust="spacing" textLength="22" x="507" y="60.9999">false</text><rect fill="#F1F1F1" height="34.4001" rx="12.5" ry="12.5" style="stroke:#181818;stroke-width:0.5;" width="126" x="140.5" y="86.3998"/><text fill="#000000" font-family="sans-serif" font-size="12" lengthAdjust="spacing" textLength="106" x="150.5" y="108.3999">Non-Linear Analysis</text><polygon fill="#F1F1F1" points="153,140.7999,254,140.7999,266,152.7999,254,164.7999,153,164.7999,141,152.7999,153,140.7999" style="stroke:#181818;stroke-width:0.5;"/><text fill="#000000" font-family="sans-serif" font-size="11" lengthAdjust="spacing" textLength="95" x="156" y="157.1999">Time Dependence?</text><text fill="#000000" font-family="sans-serif" font-size="11" lengthAdjust="spacing" textLength="19" x="119" y="150.5999">true</text><text fill="#000000" font-family="sans-serif" font-size="11" lengthAdjust="spacing" textLength="22" x="266" y="150.5999">false</text><rect fill="#F1F1F1" height="34.4001" rx="12.5" ry="12.5" style="stroke:#181818;stroke-width:0.5;" width="178" x="11" y="174.7999"/><text fill="#000000" font-family="sans-serif" font-size="12" lengthAdjust="spacing" textLength="158" x="21" y="196.8">Non-Linear Transient Analysis</text><ellipse cx="100" cy="239.2" rx="10" ry="10" style="stroke:#222222;stroke-width:1.5;fill:none;"/><line style="stroke:#222222;stroke-width:2.5;fill:none;" x1="93.8128" x2="106.1872" y1="233.0128" y2="245.3872"/><line style="stroke:#222222;stroke-width:2.5;fill:none;" x1="106.1872" x2="93.8128" y1="233.0128" y2="245.3872"/><rect fill="#F1F1F1" height="34.4001" rx="12.5" ry="12.5" style="stroke:#181818;stroke-width:0.5;" width="196" x="209" y="174.7999"/><text fill="#000000" font-family="sans-serif" font-size="12" lengthAdjust="spacing" textLength="176" x="219" y="196.8">Non-Linear Steady State Analysis</text><ellipse cx="307" cy="239.2" rx="10" ry="10" style="stroke:#222222;stroke-width:1.5;fill:none;"/><line style="stroke:#222222;stroke-width:2.5;fill:none;" x1="300.8128" x2="313.1872" y1="233.0128" y2="245.3872"/><line style="stroke:#222222;stroke-width:2.5;fill:none;" x1="313.1872" x2="300.8128" y1="233.0128" y2="245.3872"/><rect fill="#F1F1F1" height="34.4001" rx="12.5" ry="12.5" style="stroke:#181818;stroke-width:0.5;" width="101" x="562" y="86.3998"/><text fill="#000000" font-family="sans-serif" font-size="12" lengthAdjust="spacing" textLength="81" x="572" y="108.3999">Linear Analysis</text><polygon fill="#F1F1F1" points="562,140.7999,663,140.7999,675,152.7999,663,164.7999,562,164.7999,550,152.7999,562,140.7999" style="stroke:#181818;stroke-width:0.5;"/><text fill="#000000" font-family="sans-serif" font-size="11" lengthAdjust="spacing" textLength="95" x="565" y="157.1999">Time Dependence?</text><text fill="#000000" font-family="sans-serif" font-size="11" lengthAdjust="spacing" textLength="19" x="528" y="150.5999">true</text><text fill="#000000" font-family="sans-serif" font-size="11" lengthAdjust="spacing" textLength="22" x="675" y="150.5999">false</text><rect fill="#F1F1F1" height="34.4001" rx="12.5" ry="12.5" style="stroke:#181818;stroke-width:0.5;" width="153" x="445" y="174.7999"/><text fill="#000000" font-family="sans-serif" font-size="12" lengthAdjust="spacing" textLength="133" x="455" y="196.8">Linear Transient Analysis</text><ellipse cx="521.5" cy="239.2" rx="10" ry="10" style="stroke:#222222;stroke-width:1.5;fill:none;"/><line style="stroke:#222222;stroke-width:2.5;fill:none;" x1="515.3128" x2="527.6872" y1="233.0128" y2="245.3872"/><line style="stroke:#222222;stroke-width:2.5;fill:none;" x1="527.6872" x2="515.3128" y1="233.0128" y2="245.3872"/><rect fill="#F1F1F1" height="34.4001" rx="12.5" ry="12.5" style="stroke:#181818;stroke-width:0.5;" width="171" x="618" y="174.7999"/><text fill="#000000" font-family="sans-serif" font-size="12" lengthAdjust="spacing" textLength="151" x="628" y="196.8">Linear Steady State Analysis</text><ellipse cx="703.5" cy="239.2" rx="10" ry="10" style="stroke:#222222;stroke-width:1.5;fill:none;"/><line style="stroke:#222222;stroke-width:2.5;fill:none;" x1="697.3128" x2="709.6872" y1="233.0128" y2="245.3872"/><line style="stroke:#222222;stroke-width:2.5;fill:none;" x1="709.6872" x2="697.3128" y1="233.0128" y2="245.3872"/><line style="stroke:#181818;stroke-width:1.0;fill:none;" x1="100" x2="100" y1="209.2" y2="229.2"/><polygon fill="#181818" points="96,219.2,100,229.2,104,219.2,100,223.2" style="stroke:#181818;stroke-width:1.0;"/><line style="stroke:#181818;stroke-width:1.0;" x1="307" x2="307" y1="209.2" y2="229.2"/><polygon fill="#181818" points="303,219.2,307,229.2,311,219.2,307,223.2" style="stroke:#181818;stroke-width:1.0;"/><line style="stroke:#181818;stroke-width:1.0;" x1="141" x2="100" y1="152.7999" y2="152.7999"/><line style="stroke:#181818;stroke-width:1.0;" x1="100" x2="100" y1="152.7999" y2="174.7999"/><polygon fill="#181818" points="96,164.7999,100,174.7999,104,164.7999,100,168.7999" style="stroke:#181818;stroke-width:1.0;"/><line style="stroke:#181818;stroke-width:1.0;" x1="266" x2="307" y1="152.7999" y2="152.7999"/><line style="stroke:#181818;stroke-width:1.0;" x1="307" x2="307" y1="152.7999" y2="174.7999"/><polygon fill="#181818" points="303,164.7999,307,174.7999,311,164.7999,307,168.7999" style="stroke:#181818;stroke-width:1.0;"/><line style="stroke:#181818;stroke-width:1.0;" x1="203.5" x2="203.5" y1="120.7999" y2="140.7999"/><polygon fill="#181818" points="199.5,130.7999,203.5,140.7999,207.5,130.7999,203.5,134.7999" style="stroke:#181818;stroke-width:1.0;"/><line style="stroke:#181818;stroke-width:1.0;" x1="521.5" x2="521.5" y1="209.2" y2="229.2"/><polygon fill="#181818" points="517.5,219.2,521.5,229.2,525.5,219.2,521.5,223.2" style="stroke:#181818;stroke-width:1.0;"/><line style="stroke:#181818;stroke-width:1.0;" x1="703.5" x2="703.5" y1="209.2" y2="229.2"/><polygon fill="#181818" points="699.5,219.2,703.5,229.2,707.5,219.2,703.5,223.2" style="stroke:#181818;stroke-width:1.0;"/><line style="stroke:#181818;stroke-width:1.0;" x1="550" x2="521.5" y1="152.7999" y2="152.7999"/><line style="stroke:#181818;stroke-width:1.0;" x1="521.5" x2="521.5" y1="152.7999" y2="174.7999"/><polygon fill="#181818" points="517.5,164.7999,521.5,174.7999,525.5,164.7999,521.5,168.7999" style="stroke:#181818;stroke-width:1.0;"/><line style="stroke:#181818;stroke-width:1.0;" x1="675" x2="703.5" y1="152.7999" y2="152.7999"/><line style="stroke:#181818;stroke-width:1.0;" x1="703.5" x2="703.5" y1="152.7999" y2="174.7999"/><polygon fill="#181818" points="699.5,164.7999,703.5,174.7999,707.5,164.7999,703.5,168.7999" style="stroke:#181818;stroke-width:1.0;"/><line style="stroke:#181818;stroke-width:1.0;" x1="612.5" x2="612.5" y1="120.7999" y2="140.7999"/><polygon fill="#181818" points="608.5,130.7999,612.5,140.7999,616.5,130.7999,612.5,134.7999" style="stroke:#181818;stroke-width:1.0;"/><line style="stroke:#181818;stroke-width:1.0;" x1="309" x2="203.5" y1="63.1999" y2="63.1999"/><line style="stroke:#181818;stroke-width:1.0;" x1="203.5" x2="203.5" y1="63.1999" y2="86.3998"/><polygon fill="#181818" points="199.5,76.3998,203.5,86.3998,207.5,76.3998,203.5,80.3998" style="stroke:#181818;stroke-width:1.0;"/><line style="stroke:#181818;stroke-width:1.0;" x1="507" x2="612.5" y1="63.1999" y2="63.1999"/><line style="stroke:#181818;stroke-width:1.0;" x1="612.5" x2="612.5" y1="63.1999" y2="86.3998"/><polygon fill="#181818" points="608.5,76.3998,612.5,86.3998,616.5,76.3998,612.5,80.3998" style="stroke:#181818;stroke-width:1.0;"/><line style="stroke:#181818;stroke-width:1.0;" x1="408" x2="408" y1="30" y2="50"/><polygon fill="#181818" points="404,40,408,50,412,40,408,44" style="stroke:#181818;stroke-width:1.0;"/><!--MD5=[8ef36ac2013cc50af022e7b5179e6826]
@startuml
start

if (are materials properties or boundary
    temperature dependent) then (true)
  :Non-Linear Analysis;
  if ( Time Dependence? ) then ( true )
  :Non-Linear Transient Analysis;
  end
  else (false)
  :Non-Linear Steady State Analysis;
  end
  endif
else (false)
  :Linear Analysis;
  if ( Time Dependence? ) then ( true )
  :Linear Transient Analysis;
  end
  else (false)
  :Linear Steady State Analysis;
  end
  endif
endif
@enduml

PlantUML version 1.2022.5(Sat Apr 30 10:55:52 GMT 2022)
(GPL source distribution)
Java Runtime: OpenJDK Runtime Environment
JVM: OpenJDK 64-Bit Server VM
Default Encoding: UTF-8
Language: en
Country: US
--></g></svg>